<svg width="316" height="36" viewBox="0 0 316 36" fill="none" xmlns="http://www.w3.org/2000/svg">
<path d="M19.1334 36C30.0115 36 36.934 30.5739 36.934 21.7043V20.9217H28.2419V21.7043C28.2419 26.2957 25.6395 28.487 19.2895 28.487C11.6384 28.487 8.77572 25.7739 8.77572 18C8.77572 10.2261 11.6384 7.51304 19.2895 7.51304C25.6395 7.51304 28.2419 9.70435 28.2419 14.2957V15.0783H36.934V14.2957C36.934 5.42609 29.9595 0 19.1334 0C7.63065 0 0.5 7.09565 0.5 18C0.5 28.9043 7.63065 36 19.1334 36Z" fill="url(#paint0_linear_62_9289)"/>
<path d="M54.2141 36C63.1144 36 69.1 30.6783 69.1 22.4348C69.1 14.087 63.1144 8.81739 54.2141 8.81739C45.3138 8.81739 39.3282 14.087 39.3282 22.4348C39.3282 30.6783 45.3138 36 54.2141 36ZM54.2141 29.0609C48.9052 29.0609 47.0835 27.0261 47.0835 22.4348C47.0835 17.8435 48.9052 15.7043 54.2141 15.7043C59.471 15.7043 61.3448 17.8435 61.3448 22.4348C61.3448 27.0261 59.471 29.0609 54.2141 29.0609Z" fill="url(#paint1_linear_62_9289)"/>
<path d="M83.0625 36C89.9329 36 93.1078 31.8783 93.7845 27.4957H94.2009V35.4783H101.488V9.33913H93.6804V22.5913C93.6804 27.0261 91.8587 29.0087 86.7579 29.0087C81.8133 29.0087 80.0436 27.2348 80.0436 23.0087V9.33913H72.2364V25.6174C72.2364 31.4609 75.7236 36 83.0625 36Z" fill="url(#paint2_linear_62_9289)"/>
<path d="M113.287 35.4783V20.3478C113.287 17.0609 114.536 15.4435 118.023 15.4435C121.198 15.4435 122.343 16.6957 122.343 19.5652V22.2783H130.151V17.9478C130.151 12.8348 127.756 8.81739 121.927 8.81739C116.67 8.81739 113.911 12.0522 113.183 16.2783H112.714V9.33913H105.48V35.4783H113.287Z" fill="url(#paint3_linear_62_9289)"/>
<path d="M146.146 36C154.214 36 159.054 32.7652 159.054 27.8609C159.054 23.5304 156.452 21.1826 149.477 20.4L143.908 19.7217C140.473 19.3043 139.744 18.7304 139.744 17.3739C139.744 15.7043 140.733 15.0261 144.637 15.0261C149.425 15.0261 150.466 16.1217 150.466 18.2609V18.5739H158.273V18.4174C158.273 12.0522 153.433 8.81739 144.897 8.81739C135.945 8.81739 132.041 12.4696 132.041 17.0609C132.041 21.4435 134.956 23.7913 140.161 24.3652L147.499 25.2522C150.57 25.6696 151.351 26.087 151.351 27.5478C151.351 29.113 150.362 29.7913 146.198 29.7913C141.774 29.7913 140.317 29.1652 140.317 26.8174V26.3478H132.509V26.5043C132.509 32.5565 137.35 36 146.146 36Z" fill="url(#paint4_linear_62_9289)"/>
<path d="M176.049 36C184.325 36 189.842 32.0348 189.842 26.3478V25.7739H182.035V26.2957C182.035 28.5391 180.421 29.7391 175.789 29.7391C170.74 29.7391 168.867 28.0174 168.658 24H189.894C189.998 23.113 190.102 22.4348 190.102 21.4957C190.102 13.3043 184.429 8.81739 175.893 8.81739C167.305 8.81739 161.424 14.087 161.424 22.4348C161.424 31.7217 167.357 36 176.049 36ZM175.737 14.9217C180.317 14.9217 182.399 16.4348 182.607 19.8783H168.762C169.127 16.487 171.105 14.9217 175.737 14.9217Z" fill="url(#paint5_linear_62_9289)"/>
<path d="M201.22 35.4783V22.4348H222.144V15.4435H201.22V7.56522H222.925V0.521739H193.413V35.4783H201.22Z" fill="url(#paint6_linear_62_9289)"/>
<path d="M234.056 35.4783V0.521739H226.248V35.4783H234.056Z" fill="url(#paint7_linear_62_9289)"/>
<path d="M252.039 36C260.94 36 266.925 30.6783 266.925 22.4348C266.925 14.087 260.94 8.81739 252.039 8.81739C243.139 8.81739 237.153 14.087 237.153 22.4348C237.153 30.6783 243.139 36 252.039 36ZM252.039 29.0609C246.73 29.0609 244.909 27.0261 244.909 22.4348C244.909 17.8435 246.73 15.7043 252.039 15.7043C257.296 15.7043 259.17 17.8435 259.17 22.4348C259.17 27.0261 257.296 29.0609 252.039 29.0609Z" fill="url(#paint8_linear_62_9289)"/>
<path d="M284.895 35.4783L289.424 22.9043L291.401 15.7043H291.974L293.9 22.9043L298.376 35.4783H308.109L315.5 9.33913H307.537L304.518 21.287L303.373 29.4261H302.852L300.77 20.5043L296.867 9.33913H286.821L282.866 20.5043L280.784 29.4261H280.263L279.17 21.287L276.099 9.33913H268.032L275.162 35.4783H284.895Z" fill="url(#paint9_linear_62_9289)"/>
<defs>
<linearGradient id="paint0_linear_62_9289" x1="7.07101" y1="22.9033" x2="37.9697" y2="118.866" gradientUnits="userSpaceOnUse">
<stop stop-color="#95BEFF"/>
<stop offset="1" stop-color="#0040E6"/>
</linearGradient>
<linearGradient id="paint1_linear_62_9289" x1="7.07101" y1="22.9033" x2="37.9697" y2="118.866" gradientUnits="userSpaceOnUse">
<stop stop-color="#95BEFF"/>
<stop offset="1" stop-color="#0040E6"/>
</linearGradient>
<linearGradient id="paint2_linear_62_9289" x1="7.07101" y1="22.9033" x2="37.9697" y2="118.866" gradientUnits="userSpaceOnUse">
<stop stop-color="#95BEFF"/>
<stop offset="1" stop-color="#0040E6"/>
</linearGradient>
<linearGradient id="paint3_linear_62_9289" x1="7.07101" y1="22.9033" x2="37.9697" y2="118.866" gradientUnits="userSpaceOnUse">
<stop stop-color="#95BEFF"/>
<stop offset="1" stop-color="#0040E6"/>
</linearGradient>
<linearGradient id="paint4_linear_62_9289" x1="7.07101" y1="22.9033" x2="37.9697" y2="118.866" gradientUnits="userSpaceOnUse">
<stop stop-color="#95BEFF"/>
<stop offset="1" stop-color="#0040E6"/>
</linearGradient>
<linearGradient id="paint5_linear_62_9289" x1="7.07101" y1="22.9033" x2="37.9697" y2="118.866" gradientUnits="userSpaceOnUse">
<stop stop-color="#95BEFF"/>
<stop offset="1" stop-color="#0040E6"/>
</linearGradient>
<linearGradient id="paint6_linear_62_9289" x1="7.07101" y1="22.9033" x2="37.9697" y2="118.866" gradientUnits="userSpaceOnUse">
<stop stop-color="#95BEFF"/>
<stop offset="1" stop-color="#0040E6"/>
</linearGradient>
<linearGradient id="paint7_linear_62_9289" x1="7.07101" y1="22.9033" x2="37.9697" y2="118.866" gradientUnits="userSpaceOnUse">
<stop stop-color="#95BEFF"/>
<stop offset="1" stop-color="#0040E6"/>
</linearGradient>
<linearGradient id="paint8_linear_62_9289" x1="7.07101" y1="22.9033" x2="37.9697" y2="118.866" gradientUnits="userSpaceOnUse">
<stop stop-color="#95BEFF"/>
<stop offset="1" stop-color="#0040E6"/>
</linearGradient>
<linearGradient id="paint9_linear_62_9289" x1="7.07101" y1="22.9033" x2="37.9697" y2="118.866" gradientUnits="userSpaceOnUse">
<stop stop-color="#95BEFF"/>
<stop offset="1" stop-color="#0040E6"/>
</linearGradient>
</defs>
</svg>
