<svg width="26" height="76" viewBox="0 0 26 76" fill="none" xmlns="http://www.w3.org/2000/svg">
<path d="M10 34C9.46957 34 8.96086 33.7893 8.58579 33.4142C8.21071 33.0391 8 32.5304 8 32C8 31.4696 8.21071 30.9609 8.58579 30.5858C8.96086 30.2107 9.46957 30 10 30C10.5304 30 11.0391 30.2107 11.4142 30.5858C11.7893 30.9609 12 31.4696 12 32C12 32.5304 11.7893 33.0391 11.4142 33.4142C11.0391 33.7893 10.5304 34 10 34ZM10 40C9.46957 40 8.96086 39.7893 8.58579 39.4142C8.21071 39.0391 8 38.5304 8 38C8 37.4696 8.21071 36.9609 8.58579 36.5858C8.96086 36.2107 9.46957 36 10 36C10.5304 36 11.0391 36.2107 11.4142 36.5858C11.7893 36.9609 12 37.4696 12 38C12 38.5304 11.7893 39.0391 11.4142 39.4142C11.0391 39.7893 10.5304 40 10 40ZM10 46C9.46957 46 8.96086 45.7893 8.58579 45.4142C8.21071 45.0391 8 44.5304 8 44C8 43.4696 8.21071 42.9609 8.58579 42.5858C8.96086 42.2107 9.46957 42 10 42C10.5304 42 11.0391 42.2107 11.4142 42.5858C11.7893 42.9609 12 43.4696 12 44C12 44.5304 11.7893 45.0391 11.4142 45.4142C11.0391 45.7893 10.5304 46 10 46Z" fill="#C8CCDB"/>
<path d="M16 34C15.4696 34 14.9609 33.7893 14.5858 33.4142C14.2107 33.0391 14 32.5304 14 32C14 31.4696 14.2107 30.9609 14.5858 30.5858C14.9609 30.2107 15.4696 30 16 30C16.5304 30 17.0391 30.2107 17.4142 30.5858C17.7893 30.9609 18 31.4696 18 32C18 32.5304 17.7893 33.0391 17.4142 33.4142C17.0391 33.7893 16.5304 34 16 34ZM16 40C15.4696 40 14.9609 39.7893 14.5858 39.4142C14.2107 39.0391 14 38.5304 14 38C14 37.4696 14.2107 36.9609 14.5858 36.5858C14.9609 36.2107 15.4696 36 16 36C16.5304 36 17.0391 36.2107 17.4142 36.5858C17.7893 36.9609 18 37.4696 18 38C18 38.5304 17.7893 39.0391 17.4142 39.4142C17.0391 39.7893 16.5304 40 16 40ZM16 46C15.4696 46 14.9609 45.7893 14.5858 45.4142C14.2107 45.0391 14 44.5304 14 44C14 43.4696 14.2107 42.9609 14.5858 42.5858C14.9609 42.2107 15.4696 42 16 42C16.5304 42 17.0391 42.2107 17.4142 42.5858C17.7893 42.9609 18 43.4696 18 44C18 44.5304 17.7893 45.0391 17.4142 45.4142C17.0391 45.7893 16.5304 46 16 46Z" fill="#C8CCDB"/>
</svg>
