<svg width="56" height="88" viewBox="0 0 56 88" fill="none" xmlns="http://www.w3.org/2000/svg">
<path d="M24.5 37V37.01V37ZM24.5 44V44.01V44ZM24.5 51V51.01V51ZM24.5 38C24.2348 38 23.9804 37.8946 23.7929 37.7071C23.6054 37.5196 23.5 37.2652 23.5 37C23.5 36.7348 23.6054 36.4804 23.7929 36.2929C23.9804 36.1054 24.2348 36 24.5 36C24.7652 36 25.0196 36.1054 25.2071 36.2929C25.3946 36.4804 25.5 36.7348 25.5 37C25.5 37.2652 25.3946 37.5196 25.2071 37.7071C25.0196 37.8946 24.7652 38 24.5 38ZM24.5 45C24.2348 45 23.9804 44.8946 23.7929 44.7071C23.6054 44.5196 23.5 44.2652 23.5 44C23.5 43.7348 23.6054 43.4804 23.7929 43.2929C23.9804 43.1054 24.2348 43 24.5 43C24.7652 43 25.0196 43.1054 25.2071 43.2929C25.3946 43.4804 25.5 43.7348 25.5 44C25.5 44.2652 25.3946 44.5196 25.2071 44.7071C25.0196 44.8946 24.7652 45 24.5 45ZM24.5 52C24.2348 52 23.9804 51.8946 23.7929 51.7071C23.6054 51.5196 23.5 51.2652 23.5 51C23.5 50.7348 23.6054 50.4804 23.7929 50.2929C23.9804 50.1054 24.2348 50 24.5 50C24.7652 50 25.0196 50.1054 25.2071 50.2929C25.3946 50.4804 25.5 50.7348 25.5 51C25.5 51.2652 25.3946 51.5196 25.2071 51.7071C25.0196 51.8946 24.7652 52 24.5 52Z" stroke="#D6D9E4" stroke-width="2" stroke-linecap="round" stroke-linejoin="round"/>
<path d="M31.5 37V37.01V37ZM31.5 44V44.01V44ZM31.5 51V51.01V51ZM31.5 38C31.2348 38 30.9804 37.8946 30.7929 37.7071C30.6054 37.5196 30.5 37.2652 30.5 37C30.5 36.7348 30.6054 36.4804 30.7929 36.2929C30.9804 36.1054 31.2348 36 31.5 36C31.7652 36 32.0196 36.1054 32.2071 36.2929C32.3946 36.4804 32.5 36.7348 32.5 37C32.5 37.2652 32.3946 37.5196 32.2071 37.7071C32.0196 37.8946 31.7652 38 31.5 38ZM31.5 45C31.2348 45 30.9804 44.8946 30.7929 44.7071C30.6054 44.5196 30.5 44.2652 30.5 44C30.5 43.7348 30.6054 43.4804 30.7929 43.2929C30.9804 43.1054 31.2348 43 31.5 43C31.7652 43 32.0196 43.1054 32.2071 43.2929C32.3946 43.4804 32.5 43.7348 32.5 44C32.5 44.2652 32.3946 44.5196 32.2071 44.7071C32.0196 44.8946 31.7652 45 31.5 45ZM31.5 52C31.2348 52 30.9804 51.8946 30.7929 51.7071C30.6054 51.5196 30.5 51.2652 30.5 51C30.5 50.7348 30.6054 50.4804 30.7929 50.2929C30.9804 50.1054 31.2348 50 31.5 50C31.7652 50 32.0196 50.1054 32.2071 50.2929C32.3946 50.4804 32.5 50.7348 32.5 51C32.5 51.2652 32.3946 51.5196 32.2071 51.7071C32.0196 51.8946 31.7652 52 31.5 52Z" stroke="#D6D9E4" stroke-width="2" stroke-linecap="round" stroke-linejoin="round"/>
</svg>
