<svg width="160" height="160" viewBox="0 0 160 160" fill="none" xmlns="http://www.w3.org/2000/svg">
<rect width="160" height="160" rx="8" fill="#F1F2F6"/>
<path d="M80.5 58.5V73.5M88 66H73" stroke="#5483D0" stroke-width="2" stroke-linecap="round" stroke-linejoin="round"/>
<path d="M42.6662 91.8182H44.2074V98.5149C44.2074 99.2275 44.04 99.8589 43.7053 100.409C43.3705 100.956 42.8999 101.387 42.2933 101.702C41.6868 102.013 40.9759 102.169 40.1605 102.169C39.3485 102.169 38.6392 102.013 38.0327 101.702C37.4261 101.387 36.9555 100.956 36.6207 100.409C36.286 99.8589 36.1186 99.2275 36.1186 98.5149V91.8182H37.6548V98.3906C37.6548 98.8513 37.7559 99.2607 37.9581 99.6186C38.1636 99.9766 38.4536 100.258 38.8281 100.464C39.2027 100.666 39.6468 100.767 40.1605 100.767C40.6776 100.767 41.1233 100.666 41.4979 100.464C41.8757 100.258 42.1641 99.9766 42.3629 99.6186C42.5651 99.2607 42.6662 98.8513 42.6662 98.3906V91.8182ZM46.3216 104.864V94.3636H47.7733V95.6016H47.8975C47.9837 95.4425 48.108 95.2585 48.2704 95.0497C48.4328 94.8409 48.6582 94.6586 48.9466 94.5028C49.2349 94.3438 49.6161 94.2642 50.09 94.2642C50.7065 94.2642 51.2567 94.42 51.7406 94.7315C52.2245 95.0431 52.604 95.4922 52.8791 96.0788C53.1575 96.6655 53.2967 97.3714 53.2967 98.1967C53.2967 99.022 53.1592 99.7296 52.8841 100.32C52.609 100.906 52.2311 101.359 51.7505 101.677C51.2699 101.992 50.7214 102.149 50.1049 102.149C49.6409 102.149 49.2614 102.071 48.9664 101.915C48.6748 101.76 48.4461 101.577 48.2804 101.369C48.1146 101.16 47.987 100.974 47.8975 100.812H47.8081V104.864H46.3216ZM47.7782 98.1818C47.7782 98.7187 47.8561 99.1894 48.0119 99.5938C48.1677 99.9981 48.3931 100.315 48.688 100.543C48.983 100.769 49.3443 100.881 49.7718 100.881C50.216 100.881 50.5872 100.764 50.8855 100.528C51.1838 100.29 51.4092 99.9666 51.5616 99.5589C51.7174 99.1513 51.7953 98.6922 51.7953 98.1818C51.7953 97.678 51.719 97.2256 51.5666 96.8246C51.4174 96.4235 51.1921 96.107 50.8904 95.875C50.5922 95.643 50.2193 95.527 49.7718 95.527C49.341 95.527 48.9764 95.638 48.6781 95.8601C48.3831 96.0821 48.1594 96.392 48.0069 96.7898C47.8545 97.1875 47.7782 97.6515 47.7782 98.1818ZM56.4487 91.8182V102H54.9622V91.8182H56.4487ZM61.6651 102.154C60.9492 102.154 60.3245 101.99 59.7908 101.662C59.2572 101.334 58.8429 100.875 58.5479 100.285C58.253 99.6948 58.1055 99.0054 58.1055 98.2166C58.1055 97.4245 58.253 96.7318 58.5479 96.1385C58.8429 95.5452 59.2572 95.0845 59.7908 94.7564C60.3245 94.4283 60.9492 94.2642 61.6651 94.2642C62.381 94.2642 63.0058 94.4283 63.5394 94.7564C64.073 95.0845 64.4873 95.5452 64.7823 96.1385C65.0773 96.7318 65.2248 97.4245 65.2248 98.2166C65.2248 99.0054 65.0773 99.6948 64.7823 100.285C64.4873 100.875 64.073 101.334 63.5394 101.662C63.0058 101.99 62.381 102.154 61.6651 102.154ZM61.6701 100.906C62.1341 100.906 62.5186 100.784 62.8235 100.538C63.1284 100.293 63.3538 99.9666 63.4996 99.5589C63.6488 99.1513 63.7234 98.7022 63.7234 98.2116C63.7234 97.7244 63.6488 97.277 63.4996 96.8693C63.3538 96.4583 63.1284 96.1286 62.8235 95.88C62.5186 95.6314 62.1341 95.5071 61.6701 95.5071C61.2028 95.5071 60.815 95.6314 60.5067 95.88C60.2018 96.1286 59.9748 96.4583 59.8256 96.8693C59.6798 97.277 59.6069 97.7244 59.6069 98.2116C59.6069 98.7022 59.6798 99.1513 59.8256 99.5589C59.9748 99.9666 60.2018 100.293 60.5067 100.538C60.815 100.784 61.2028 100.906 61.6701 100.906ZM69.1064 102.169C68.6225 102.169 68.185 102.08 67.7939 101.901C67.4028 101.718 67.0929 101.455 66.8642 101.11C66.6388 100.765 66.5261 100.343 66.5261 99.8423C66.5261 99.4115 66.609 99.0568 66.7747 98.7784C66.9404 98.5 67.1641 98.2796 67.4458 98.1172C67.7276 97.9548 68.0424 97.8321 68.3904 97.7493C68.7385 97.6664 69.0931 97.6035 69.4544 97.5604C69.9118 97.5073 70.283 97.4643 70.568 97.4311C70.853 97.3946 71.0602 97.3366 71.1895 97.2571C71.3187 97.1776 71.3833 97.0483 71.3833 96.8693V96.8345C71.3833 96.4003 71.2607 96.0639 71.0154 95.8253C70.7735 95.5866 70.4122 95.4673 69.9316 95.4673C69.4312 95.4673 69.0368 95.5784 68.7484 95.8004C68.4634 96.0192 68.2662 96.2628 68.1568 96.5312L66.7598 96.2131C66.9255 95.7491 67.1674 95.3745 67.4856 95.0895C67.8071 94.8011 68.1767 94.5923 68.5943 94.4631C69.0119 94.3305 69.4511 94.2642 69.9118 94.2642C70.2167 94.2642 70.5398 94.3007 70.8812 94.3736C71.2259 94.4432 71.5474 94.5724 71.8457 94.7614C72.1473 94.9503 72.3942 95.2204 72.5865 95.5717C72.7787 95.9197 72.8748 96.3722 72.8748 96.929V102H71.4231V100.956H71.3635C71.2673 101.148 71.1232 101.337 70.9309 101.523C70.7387 101.708 70.4918 101.862 70.1902 101.985C69.8886 102.108 69.5273 102.169 69.1064 102.169ZM69.4295 100.976C69.8405 100.976 70.1918 100.895 70.4835 100.732C70.7785 100.57 71.0022 100.358 71.1547 100.096C71.3104 99.8307 71.3883 99.5473 71.3883 99.2457V98.2614C71.3353 98.3144 71.2325 98.3641 71.0801 98.4105C70.9309 98.4536 70.7602 98.4917 70.568 98.5249C70.3758 98.5547 70.1885 98.5829 70.0062 98.6094C69.8239 98.6326 69.6715 98.6525 69.5488 98.669C69.2605 98.7055 68.997 98.7668 68.7583 98.853C68.523 98.9392 68.3341 99.0634 68.1916 99.2259C68.0524 99.3849 67.9828 99.5971 67.9828 99.8622C67.9828 100.23 68.1187 100.509 68.3904 100.697C68.6622 100.883 69.0086 100.976 69.4295 100.976ZM77.7134 102.149C77.0969 102.149 76.5468 101.992 76.0629 101.677C75.5823 101.359 75.2044 100.906 74.9293 100.32C74.6576 99.7296 74.5217 99.022 74.5217 98.1967C74.5217 97.3714 74.6592 96.6655 74.9343 96.0788C75.2127 95.4922 75.5939 95.0431 76.0778 94.7315C76.5617 94.42 77.1102 94.2642 77.7234 94.2642C78.1973 94.2642 78.5785 94.3438 78.8668 94.5028C79.1585 94.6586 79.3839 94.8409 79.543 95.0497C79.7054 95.2585 79.8313 95.4425 79.9208 95.6016H80.0103V91.8182H81.4968V102H80.0451V100.812H79.9208C79.8313 100.974 79.7021 101.16 79.533 101.369C79.3673 101.577 79.1386 101.76 78.8469 101.915C78.5553 102.071 78.1774 102.149 77.7134 102.149ZM78.0415 100.881C78.4691 100.881 78.8304 100.769 79.1254 100.543C79.4237 100.315 79.649 99.9981 79.8015 99.5938C79.9573 99.1894 80.0352 98.7187 80.0352 98.1818C80.0352 97.6515 79.9589 97.1875 79.8065 96.7898C79.654 96.392 79.4303 96.0821 79.1353 95.8601C78.8403 95.638 78.4757 95.527 78.0415 95.527C77.5941 95.527 77.2212 95.643 76.9229 95.875C76.6246 96.107 76.3993 96.4235 76.2468 96.8246C76.0977 97.2256 76.0231 97.678 76.0231 98.1818C76.0231 98.6922 76.0993 99.1513 76.2518 99.5589C76.4042 99.9666 76.6296 100.29 76.9279 100.528C77.2295 100.764 77.6007 100.881 78.0415 100.881ZM88.3327 91.8182L91.1665 100.111H91.2809L94.1147 91.8182H95.7752L92.1112 102H90.3363L86.6722 91.8182H88.3327ZM97.1262 102V94.3636H98.6127V102H97.1262ZM97.877 93.1854C97.6184 93.1854 97.3964 93.0992 97.2108 92.9268C97.0285 92.7512 96.9373 92.5424 96.9373 92.3004C96.9373 92.0552 97.0285 91.8464 97.2108 91.674C97.3964 91.4983 97.6184 91.4105 97.877 91.4105C98.1355 91.4105 98.3559 91.4983 98.5382 91.674C98.7238 91.8464 98.8166 92.0552 98.8166 92.3004C98.8166 92.5424 98.7238 92.7512 98.5382 92.9268C98.3559 93.0992 98.1355 93.1854 97.877 93.1854ZM103.471 102.149C102.855 102.149 102.305 101.992 101.821 101.677C101.34 101.359 100.962 100.906 100.687 100.32C100.415 99.7296 100.279 99.022 100.279 98.1967C100.279 97.3714 100.417 96.6655 100.692 96.0788C100.971 95.4922 101.352 95.0431 101.836 94.7315C102.319 94.42 102.868 94.2642 103.481 94.2642C103.955 94.2642 104.336 94.3438 104.625 94.5028C104.916 94.6586 105.142 94.8409 105.301 95.0497C105.463 95.2585 105.589 95.4425 105.679 95.6016H105.768V91.8182H107.255V102H105.803V100.812H105.679C105.589 100.974 105.46 101.16 105.291 101.369C105.125 101.577 104.896 101.76 104.605 101.915C104.313 102.071 103.935 102.149 103.471 102.149ZM103.799 100.881C104.227 100.881 104.588 100.769 104.883 100.543C105.181 100.315 105.407 99.9981 105.559 99.5938C105.715 99.1894 105.793 98.7187 105.793 98.1818C105.793 97.6515 105.717 97.1875 105.564 96.7898C105.412 96.392 105.188 96.0821 104.893 95.8601C104.598 95.638 104.234 95.527 103.799 95.527C103.352 95.527 102.979 95.643 102.681 95.875C102.382 96.107 102.157 96.4235 102.005 96.8246C101.855 97.2256 101.781 97.678 101.781 98.1818C101.781 98.6922 101.857 99.1513 102.01 99.5589C102.162 99.9666 102.387 100.29 102.686 100.528C102.987 100.764 103.359 100.881 103.799 100.881ZM112.667 102.154C111.915 102.154 111.267 101.993 110.724 101.672C110.183 101.347 109.766 100.891 109.471 100.305C109.179 99.7147 109.033 99.0237 109.033 98.2315C109.033 97.4493 109.179 96.7599 109.471 96.1634C109.766 95.5668 110.177 95.1011 110.704 94.7663C111.234 94.4316 111.854 94.2642 112.563 94.2642C112.994 94.2642 113.412 94.3355 113.816 94.478C114.22 94.6205 114.583 94.8442 114.905 95.1491C115.226 95.4541 115.48 95.8501 115.665 96.3374C115.851 96.8213 115.944 97.4096 115.944 98.1023V98.6293H109.873V97.5156H114.487C114.487 97.1245 114.407 96.7782 114.248 96.4766C114.089 96.1716 113.866 95.9313 113.577 95.7557C113.292 95.58 112.957 95.4922 112.573 95.4922C112.155 95.4922 111.791 95.5949 111.479 95.8004C111.171 96.0026 110.932 96.2678 110.763 96.5959C110.598 96.9207 110.515 97.2737 110.515 97.6548V98.5249C110.515 99.0353 110.604 99.4695 110.783 99.8274C110.965 100.185 111.219 100.459 111.544 100.648C111.869 100.833 112.248 100.926 112.682 100.926C112.964 100.926 113.221 100.886 113.453 100.807C113.685 100.724 113.885 100.601 114.055 100.439C114.224 100.277 114.353 100.076 114.442 99.8374L115.849 100.091C115.737 100.505 115.534 100.868 115.243 101.18C114.954 101.488 114.591 101.728 114.154 101.901C113.72 102.07 113.224 102.154 112.667 102.154ZM120.81 102.154C120.094 102.154 119.469 101.99 118.935 101.662C118.402 101.334 117.987 100.875 117.692 100.285C117.397 99.6948 117.25 99.0054 117.25 98.2166C117.25 97.4245 117.397 96.7318 117.692 96.1385C117.987 95.5452 118.402 95.0845 118.935 94.7564C119.469 94.4283 120.094 94.2642 120.81 94.2642C121.526 94.2642 122.15 94.4283 122.684 94.7564C123.218 95.0845 123.632 95.5452 123.927 96.1385C124.222 96.7318 124.369 97.4245 124.369 98.2166C124.369 99.0054 124.222 99.6948 123.927 100.285C123.632 100.875 123.218 101.334 122.684 101.662C122.15 101.99 121.526 102.154 120.81 102.154ZM120.815 100.906C121.279 100.906 121.663 100.784 121.968 100.538C122.273 100.293 122.498 99.9666 122.644 99.5589C122.793 99.1513 122.868 98.7022 122.868 98.2116C122.868 97.7244 122.793 97.277 122.644 96.8693C122.498 96.4583 122.273 96.1286 121.968 95.88C121.663 95.6314 121.279 95.5071 120.815 95.5071C120.347 95.5071 119.96 95.6314 119.651 95.88C119.346 96.1286 119.119 96.4583 118.97 96.8693C118.824 97.277 118.751 97.7244 118.751 98.2116C118.751 98.7022 118.824 99.1513 118.97 99.5589C119.119 99.9666 119.346 100.293 119.651 100.538C119.96 100.784 120.347 100.906 120.815 100.906Z" fill="#5483D0"/>
</svg>
